<svg xmlns="http://www.w3.org/2000/svg" viewBox="0 0 489.275 489.275" width="50" height="50">
  <path d="M187.237 350.6c-31.7 31.7-31.7 83.2 0 114.9s83.2 31.7 114.9 0 31.7-83.2 0-114.9c-31.7-31.7-83.1-31.7-114.9 0zm82.8 99.5l-25.3-25.3-25.3 25.3-16.7-16.7 25.3-25.3-25.3-25.2 16.7-16.7 25.3 25.3 25.3-25.3 16.7 16.7-25.3 25.3 25.3 25.3-16.7 16.6z" fill="#ccc"/>
  <path d="M419.937 325.8c-48.1-39.5-100-65.8-110.6-70.9-1.2-.6-1.9-1.8-1.9-3.1v-74.9c9.4-6.3 15.6-17 15.6-29.1V70c0-38.6-31.3-70-70-70H236.337c-38.6 0-70 31.3-70 70v77.7c0 12.2 6.2 22.9 15.6 29.1v74.9c0 1.3-.8 2.5-1.9 3.1-10.6 5.2-62.4 31.4-110.6 70.9-8.7 7.1-13.7 17.8-13.7 29.1V408h85c0-27.8 10.8-53.9 30.4-73.5 19.6-19.6 45.7-30.4 73.5-30.4s53.9 10.8 73.5 30.4c19.6 19.6 30.4 45.7 30.4 73.5h85v-53.2c.1-11.2-4.9-21.9-13.6-29z" fill="#ccc"/>
</svg>
